HIERARCHY
ROOT SpineBase
{
  OFFSET 0.000000 0.000000 0.000000
  CHANNELS 6 Xposition Yposition Zposition Zrotation Xrotation Yrotation
  JOINT SpineMid
  {
    OFFSET 0.000000 22.101946 0.000000
    CHANNELS 3 Zrotation Xrotation Yrotation
    JOINT SpineShoulder
    {
      OFFSET -0.699635 16.591627 -0.839088
      CHANNELS 3 Zrotation Xrotation Yrotation
      JOINT Neck
      {
        OFFSET -0.004812 5.253926 -0.796837
        CHANNELS 3 Zrotation Xrotation Yrotation
        JOINT Head
        {
          OFFSET 1.086746 9.878675 -3.291953
          CHANNELS 3 Zrotation Xrotation Yrotation
          End Site
          {
            OFFSET 0 0 0
          }
        }
      }
      JOINT ShoulderLeft
      {
        OFFSET -9.592972 2.793932 9.654239
        CHANNELS 3 Zrotation Xrotation Yrotation
        JOINT ElbowLeft
        {
          OFFSET -21.309216 -10.144966 5.941187
          CHANNELS 3 Zrotation Xrotation Yrotation
          JOINT WristLeft
          {
            OFFSET -0.283865 -24.938145 4.301685
            CHANNELS 3 Zrotation Xrotation Yrotation
            JOINT HandLeft
            {
              OFFSET 0.217695 -1.733883 -8.074288
              CHANNELS 3 Zrotation Xrotation Yrotation
              JOINT HandTipLeft
              {
                OFFSET -0.109553 -2.331907 -0.531356
                CHANNELS 3 Zrotation Xrotation Yrotation
                End Site
                {
                  OFFSET 0 0 0
                }
              }
              JOINT ThumbLeft
              {
                OFFSET -1.857861 -0.450737 -2.164426
                CHANNELS 3 Zrotation Xrotation Yrotation
                End Site
                {
                  OFFSET 0 0 0
                }
              }
            }
          }
        }
      }
      JOINT ShoulderRight
      {
        OFFSET -19.913121 -7.097145 20.626239
        CHANNELS 3 Zrotation Xrotation Yrotation
        JOINT ElbowRight
        {
          OFFSET 11.501183 4.039853 -23.114238
          CHANNELS 3 Zrotation Xrotation Yrotation
          JOINT WristRight
          {
            OFFSET -2.171253 -19.188173 -17.608718
            CHANNELS 3 Zrotation Xrotation Yrotation
            JOINT HandRight
            {
              OFFSET 4.287721 -12.255716 -14.412161
              CHANNELS 3 Zrotation Xrotation Yrotation
              JOINT HandTipRight
              {
                OFFSET -6.528295 -2.089800 -4.565792
                CHANNELS 3 Zrotation Xrotation Yrotation
                End Site
                {
                  OFFSET 0 0 0
                }
              }
              JOINT ThumbRight
              {
                OFFSET 1.010283 5.371247 -4.795577
                CHANNELS 3 Zrotation Xrotation Yrotation
                End Site
                {
                  OFFSET 0 0 0
                }
              }
            }
          }
        }
      }
    }
  }
  JOINT HipLeft
  {
    OFFSET 3.261281 0.652022 0.282404
    CHANNELS 3 Zrotation Xrotation Yrotation
    JOINT KneeLeft
    {
      OFFSET -35.635522 -3.013393 -3.928746
      CHANNELS 3 Zrotation Xrotation Yrotation
      JOINT AnkleLeft
      {
        OFFSET 30.028357 -2.721358 19.563833
        CHANNELS 3 Zrotation Xrotation Yrotation
        JOINT FootLeft
        {
          OFFSET -7.647335 -9.625396 3.430288
          CHANNELS 3 Zrotation Xrotation Yrotation
          End Site
          {
            OFFSET 0 0 0
          }
        }
      }
    }
  }
  JOINT HipRight
  {
    OFFSET -4.132460 -2.797060 -4.833312
    CHANNELS 3 Zrotation Xrotation Yrotation
    JOINT KneeRight
    {
      OFFSET -10.581827 -0.721970 -27.353389
      CHANNELS 3 Zrotation Xrotation Yrotation
      JOINT AnkleRight
      {
        OFFSET -6.430120 -15.777562 20.054469
        CHANNELS 3 Zrotation Xrotation Yrotation
        JOINT FootRight
        {
          OFFSET -0.889262 8.412838 -6.160884
          CHANNELS 3 Zrotation Xrotation Yrotation
          End Site
          {
            OFFSET 0 0 0
          }
        }
      }
    }
  }
}
MOTION
Frames: 14
Frame Time: 0.033333
85.172322 19.296592 390.316919 -0.000000 0.000000 145.320713 -0.000000 0.000000 -145.320713 -0.000000 0.000000 0.000000 -0.000000 0.000000 0.000000 0.000000 0.000000 0.000000 -0.000000 0.000000 0.000000 -0.000000 0.000000 0.000000 -0.000000 0.000000 0.000000 -0.000000 0.000000 0.000000 0.000000 0.000000 0.000000 0.000000 0.000000 0.000000 -0.000000 0.000000 0.000000 -0.000000 0.000000 0.000000 -0.000000 0.000000 0.000000 -0.000000 0.000000 0.000000 0.000000 0.000000 0.000000 0.000000 0.000000 0.000000 -0.000000 0.000000 -145.320713 -0.000000 0.000000 0.000000 -0.000000 0.000000 0.000000 0.000000 0.000000 0.000000 -0.000000 0.000000 -145.320713 -0.000000 0.000000 0.000000 -0.000000 0.000000 0.000000 0.000000 0.000000 0.000000
84.533227 19.208647 391.390204 -1.542724 -1.631926 142.450816 0.498504 -1.501448 -142.511099 1.022724 0.138758 0.056319 2.052965 0.010143 0.684263 0.000000 0.000000 0.000000 1.186153 0.121554 0.448110 4.859933 -0.709834 0.643677 -5.172062 0.586456 -5.085685 -9.388777 24.225505 6.143061 0.000000 0.000000 0.000000 0.000000 0.000000 0.000000 0.445083 0.738245 0.464192 1.217267 2.443470 -2.319216 1.658762 0.168808 -0.749810 -0.511541 -4.223313 -0.479628 0.000000 0.000000 0.000000 0.000000 0.000000 0.000000 1.377260 -1.534601 -144.796933 0.327093 0.483635 2.554485 1.349478 -0.897871 -0.164545 0.000000 0.000000 0.000000 -0.069176 -2.362962 -143.502466 -0.537922 -0.571445 0.421219 -0.651257 -2.067649 -0.582507 0.000000 0.000000 0.000000
84.061490 19.129505 392.240820 -2.776673 -3.128363 140.213697 1.163800 -2.596314 -140.335778 2.008274 0.392827 0.111191 3.756476 0.610434 1.171342 0.000000 0.000000 0.000000 2.028232 0.247062 0.691157 14.206034 -1.333205 2.354572 -14.437673 1.660608 -10.736789 -22.763656 49.977471 17.312342 0.000000 0.000000 0.000000 0.000000 0.000000 0.000000 0.818760 1.374008 0.837425 2.182133 4.196305 -4.127078 3.506742 0.715789 -1.737828 -0.817829 -8.048489 -0.696882 0.000000 0.000000 0.000000 0.000000 0.000000 0.000000 2.707786 -2.869957 -144.388082 0.517484 0.841585 4.647044 2.263394 -2.854010 0.586505 0.000000 0.000000 0.000000 0.218394 -4.435991 -142.113376 -0.979199 -1.007410 0.648575 -1.124909 -3.796838 -0.987053 0.000000 0.000000 0.000000
83.757112 19.059166 392.868766 -3.674289 -4.466710 138.983132 1.880761 -3.281685 -139.162920 2.935758 0.766214 0.161059 5.262831 1.698838 1.504985 0.000000 0.000000 0.000000 2.528297 0.369586 0.731709 31.158855 -1.065464 5.679102 -30.811723 3.729892 -17.326136 -40.857048 68.447123 35.631506 0.000000 0.000000 0.000000 0.000000 0.000000 0.000000 1.123242 1.905254 1.121564 2.799771 5.278631 -5.374236 5.323383 1.389859 -2.847055 -0.992516 -11.122055 -0.622841 0.000000 0.000000 0.000000 0.000000 0.000000 0.000000 3.854064 -4.037563 -144.432627 0.556258 1.103829 6.213901 2.804876 -4.112105 0.865193 0.000000 0.000000 0.000000 0.728246 -6.168613 -141.530787 -1.330260 -1.302855 0.715984 -1.429271 -5.223327 -1.212802 0.000000 0.000000 0.000000
83.620091 18.997632 393.274042 -4.214029 -5.629135 139.104622 2.554231 -3.592251 -139.335449 2.904564 1.337732 0.089388 7.543536 3.180661 1.849114 0.000000 0.000000 0.000000 3.568907 0.412231 0.710923 56.746613 1.898920 9.915257 -55.373570 7.308620 -24.506556 -65.788779 79.492484 63.074258 0.000000 0.000000 0.000000 0.000000 0.000000 0.000000 2.234652 2.253670 1.454183 3.010279 5.719467 -6.033590 6.893429 1.966702 -3.950064 -1.159005 -13.138506 -0.286670 0.000000 0.000000 0.000000 0.000000 0.000000 0.000000 4.678928 -5.095453 -145.260955 0.434376 1.295140 7.212957 2.953557 -5.260091 1.117629 0.000000 0.000000 0.000000 1.310587 -7.554684 -142.110535 -1.594065 -1.455953 0.647920 -1.573968 -6.376285 -1.260296 0.000000 0.000000 0.000000
83.650429 18.944901 393.456648 -4.380450 -6.601887 140.830013 3.139248 -3.583745 -141.100719 3.339572 1.503896 0.087393 9.243326 5.644456 1.906827 0.000000 0.000000 0.000000 3.714313 0.964899 0.382375 82.146097 7.245280 11.827362 -79.413765 11.048358 -31.284571 -113.407419 85.778700 115.058730 0.000000 0.000000 0.000000 0.000000 0.000000 0.000000 2.720554 3.014531 1.597520 2.783431 5.537925 -6.095950 8.032715 2.284867 -4.931320 -1.431097 -13.877731 0.242507 0.000000 0.000000 0.000000 0.000000 0.000000 0.000000 5.062742 -6.091710 -147.124556 0.148056 1.434719 7.620633 2.709031 -6.299182 1.336306 0.000000 0.000000 0.000000 1.838532 -8.624853 -144.118158 -1.770709 -1.467441 0.461401 -1.568097 -7.275450 -1.129287 0.000000 0.000000 0.000000
84.227945 18.809780 393.671573 -3.889642 -8.829058 145.207566 4.568325 -3.171998 -145.502492 3.648333 0.661153 0.013558 13.725848 14.090465 1.226519 0.000000 0.000000 0.000000 4.110425 3.746003 -0.267263 105.651702 12.750620 11.201306 -98.474084 15.827372 -44.210603 137.908121 84.335205 -126.438592 0.000000 0.000000 0.000000 0.000000 0.000000 0.000000 3.997522 6.282369 1.735953 1.444566 3.733547 -5.221928 9.525856 2.532822 -6.786340 -3.016192 -12.627652 1.369487 0.000000 0.000000 0.000000 0.000000 0.000000 0.000000 5.316360 -8.291283 -150.146195 0.056361 1.226520 6.542706 1.491446 -5.433225 0.645504 0.000000 0.000000 0.000000 3.327694 -10.611605 -148.231018 -3.221220 -2.009987 -1.812390 -0.262703 -6.798364 0.583418 0.000000 0.000000 0.000000
84.308261 18.880940 392.754643 -4.012740 -8.283581 154.782188 3.987285 -2.821659 -155.146790 3.920012 1.615377 0.013547 15.605172 16.880367 0.933680 0.000000 0.000000 0.000000 3.682477 3.278616 -0.740367 116.856362 16.455047 7.899320 -105.735595 15.783365 -54.817477 108.107232 83.120161 -89.441212 0.000000 0.000000 0.000000 0.000000 0.000000 0.000000 4.267508 5.682080 1.795823 0.372889 2.465418 -4.122839 9.532832 2.141523 -7.387568 -3.422053 -10.579706 2.075388 0.000000 0.000000 0.000000 0.000000 0.000000 0.000000 1.659294 -9.068568 -159.279121 -1.332164 1.171051 4.894518 0.547821 -8.204273 3.512095 0.000000 0.000000 0.000000 1.187280 -10.619962 -158.106743 -2.876262 -1.565631 -1.463571 -1.674380 -7.518382 -0.506020 0.000000 0.000000 0.000000
84.138923 18.829276 391.407967 -4.190273 -6.878586 162.407956 3.345675 -1.870700 -162.863077 4.001130 2.952371 0.021929 16.543488 18.270441 0.807269 0.000000 0.000000 0.000000 2.478023 2.213358 -1.922877 121.871856 19.086684 5.179396 -104.737394 15.171312 -67.183205 93.868051 83.680992 -68.675132 0.000000 0.000000 0.000000 0.000000 0.000000 0.000000 4.438264 4.215045 1.595648 -0.839367 0.379182 -2.422803 8.166062 1.208138 -7.198318 -3.301322 -6.748638 2.822750 0.000000 0.000000 0.000000 0.000000 0.000000 0.000000 -1.182349 -7.939044 -165.639633 -2.283009 1.434876 3.238719 -0.540167 -9.173377 3.856911 0.000000 0.000000 0.000000 -0.532576 -9.857945 -166.526511 -1.589915 -1.047429 0.263967 -3.259024 -8.244175 -1.815904 0.000000 0.000000 0.000000
84.677032 18.962327 390.699060 -3.002988 -5.820921 166.903681 4.204951 -0.345409 -167.352727 3.849491 4.354848 0.036663 17.464960 18.430268 0.979465 0.000000 0.000000 0.000000 1.487004 1.268205 -2.590094 122.778497 20.925579 2.375060 -101.836959 13.355047 -73.229192 56.051581 85.131939 -29.052946 0.000000 0.000000 0.000000 0.000000 0.000000 0.000000 4.961254 3.636621 1.654236 -2.661219 -2.197376 -0.780139 6.282445 0.790272 -6.126483 -1.169570 -4.348525 3.846358 0.000000 0.000000 0.000000 0.000000 0.000000 0.000000 -1.849472 -6.555531 -169.406382 -3.444853 1.738899 2.372837 -1.366805 -11.023550 4.741939 0.000000 0.000000 0.000000 -0.009690 -9.050798 -170.717847 -2.085581 -1.182915 -1.091882 -0.830727 -5.775204 1.021909 0.000000 0.000000 0.000000
84.970807 19.034677 390.778932 -2.197530 -5.436480 162.612063 4.228538 1.028152 -163.091610 3.686877 5.123184 0.080589 16.594628 17.879071 0.967917 0.000000 0.000000 0.000000 0.046027 1.165797 -3.311884 116.326201 21.035242 2.977711 -95.213094 13.305181 -68.041088 61.684683 79.654481 -32.201389 0.000000 0.000000 0.000000 0.000000 0.000000 0.000000 4.638331 3.528216 1.412646 -3.116290 -2.618321 -0.145159 5.483864 -0.484826 -5.785699 1.024918 -3.729852 4.836443 0.000000 0.000000 0.000000 0.000000 0.000000 0.000000 -0.850459 -6.183063 -166.058600 -3.646579 1.562157 2.671528 -1.241488 -9.632543 4.532911 0.000000 0.000000 0.000000 1.486932 -8.595943 -166.003714 -0.849390 0.191545 -0.423576 0.372014 -6.112778 2.170662 0.000000 0.000000 0.000000
84.624315 19.089137 389.392517 -2.952535 -3.021843 157.769650 3.076695 1.824107 -158.295603 3.467107 5.329592 0.057750 16.228187 15.702136 1.504191 0.000000 0.000000 0.000000 1.147136 -0.438665 -3.256192 117.637584 22.023306 1.643181 -96.552144 11.592786 -72.807870 37.504582 78.615521 -5.896064 0.000000 0.000000 0.000000 0.000000 0.000000 0.000000 4.738437 1.589917 1.437100 -3.087550 -2.794441 0.046070 5.371128 -0.605801 -5.858029 0.471812 -2.716196 3.960534 0.000000 0.000000 0.000000 0.000000 0.000000 0.000000 -2.325230 -4.327314 -160.574842 -2.606008 0.719965 0.012105 -0.545109 -5.756493 5.296999 0.000000 0.000000 0.000000 0.975341 -6.908224 -161.003482 -1.467492 -0.015727 -1.859413 0.502790 2.257331 4.359988 0.000000 0.000000 0.000000
83.367706 19.034911 388.531428 -5.068622 -1.213241 147.212070 1.368722 0.993944 -147.662170 3.878854 6.847994 0.097211 14.193508 8.877689 2.618120 0.000000 0.000000 0.000000 1.544771 -4.259336 -2.867428 116.667175 21.223303 2.549268 -97.639440 12.228869 -68.811988 49.687902 78.990498 -19.848195 0.000000 0.000000 0.000000 0.000000 0.000000 0.000000 4.401431 -2.612066 1.595860 -2.165891 -0.903297 -0.657803 5.917181 -0.876184 -5.915073 -0.553838 -3.761132 4.163592 0.000000 0.000000 0.000000 0.000000 0.000000 0.000000 -4.895560 -4.768211 -152.284902 -2.701169 -0.049358 0.234290 1.518723 -5.637541 8.806631 0.000000 0.000000 0.000000 -0.391315 -6.458269 -151.850040 -3.078862 -1.014441 -2.436323 -0.344276 13.390396 7.142444 0.000000 0.000000 0.000000
84.023151 19.182658 389.060522 -4.081526 -2.392339 147.341239 2.118390 -0.127505 -147.685924 2.642879 5.333929 -0.010053 14.579984 10.172231 2.397130 0.000000 0.000000 0.000000 2.955075 -3.171443 -1.600277 114.539736 18.438112 5.624216 -98.589452 15.943182 -59.973441 55.857113 76.001119 -27.285071 0.000000 0.000000 0.000000 0.000000 0.000000 0.000000 4.631914 -1.408027 1.688291 -2.179747 -0.681107 -0.711012 6.464528 -1.279782 -6.598357 -0.694228 -3.910248 5.738141 0.000000 0.000000 0.000000 0.000000 0.000000 0.000000 -3.500677 -5.360004 -153.943290 -3.030169 -0.146842 1.144511 2.135547 -6.913718 10.481021 0.000000 0.000000 0.000000 0.833962 -6.663437 -151.005721 -5.312180 -2.281670 -5.598693 -0.597648 19.007125 9.494674 0.000000 0.000000 0.000000
